<svg xmlns="http://www.w3.org/2000/svg" viewBox="0 0 120 120" fill="none">
  <defs>
    <clipPath id="left"><rect x="0" y="0" width="61" height="120"/></clipPath>
    <radialGradient id="brainGrad" cx="40%" cy="50%">
      <stop offset="0%" stop-color="#38bdf8"/>
      <stop offset="100%" stop-color="#0369a1"/>
    </radialGradient>
  </defs>

  <!-- Brain shape (left half) -->
  <g clip-path="url(#left)">
    <path d="M60,12 C47,12 36,20 32,31 C26,33 20,40 22,50 C18,55 18,65 22,70 C20,78 25,88 33,91 C37,99 46,107 56,108 C58,108 60,108 60,108 L60,12Z" fill="url(#brainGrad)"/>
    <path d="M38,32 C42,27 48,26 51,30" stroke="white" stroke-width="1.5" stroke-linecap="round" stroke-opacity="0.5"/>
    <path d="M30,50 C33,44 40,42 44,46" stroke="white" stroke-width="1.5" stroke-linecap="round" stroke-opacity="0.5"/>
    <path d="M28,65 C32,59 39,58 43,62" stroke="white" stroke-width="1.5" stroke-linecap="round" stroke-opacity="0.5"/>
    <path d="M34,80 C39,74 46,73 49,77" stroke="white" stroke-width="1.5" stroke-linecap="round" stroke-opacity="0.5"/>
    <path d="M24,40 C29,36 35,37 37,42" stroke="white" stroke-width="1.2" stroke-linecap="round" stroke-opacity="0.4"/>
  </g>

  <!-- Divider -->
  <line x1="60" y1="8" x2="60" y2="112" stroke="rgba(255,255,255,0.2)" stroke-width="0.8"/>

  <!-- Neural network connections (right half) -->
  <g stroke="#ef4444" stroke-width="1" opacity="0.85">
    <line x1="60" y1="28" x2="78" y2="16"/>
    <line x1="78" y1="16" x2="98" y2="28"/>
    <line x1="98" y1="28" x2="108" y2="52"/>
    <line x1="108" y1="52" x2="98" y2="78"/>
    <line x1="98" y1="78" x2="78" y2="96"/>
    <line x1="78" y1="96" x2="60" y2="88"/>
    <line x1="60" y1="28" x2="82" y2="48"/>
    <line x1="82" y1="48" x2="108" y2="52"/>
    <line x1="82" y1="48" x2="92" y2="68"/>
    <line x1="92" y1="68" x2="98" y2="78"/>
    <line x1="60" y1="58" x2="82" y2="48"/>
    <line x1="60" y1="58" x2="92" y2="68"/>
    <line x1="60" y1="88" x2="92" y2="68"/>
    <line x1="60" y1="28" x2="60" y2="58"/>
    <line x1="60" y1="58" x2="60" y2="88"/>
    <line x1="78" y1="16" x2="82" y2="48"/>
    <line x1="98" y1="28" x2="82" y2="48"/>
  </g>

  <!-- Neural nodes -->
  <circle cx="78" cy="16" r="5.5" fill="#ec4899"/>
  <circle cx="98" cy="28" r="4.5" fill="#f97316"/>
  <circle cx="108" cy="52" r="6.5" fill="#06b6d4"/>
  <circle cx="98" cy="78" r="4.5" fill="#f59e0b"/>
  <circle cx="78" cy="96" r="5.5" fill="#ef4444"/>
  <circle cx="60" cy="28" r="3.5" fill="#a855f7"/>
  <circle cx="60" cy="58" r="4" fill="#22d3ee"/>
  <circle cx="60" cy="88" r="3.5" fill="#ec4899"/>
  <circle cx="82" cy="48" r="3.5" fill="#f97316"/>
  <circle cx="92" cy="68" r="3.5" fill="#84cc16"/>
</svg>
